<svg width="49" height="49" viewBox="0 0 49 49" fill="none" xmlns="http://www.w3.org/2000/svg">
<circle cx="24.5" cy="24.5" r="24.5" fill="#F9F9F9"/>
<g clip-path="url(#clip0_1_1213)">
<g clip-path="url(#clip1_1_1213)">
<path d="M19.5 13.917C17.7049 13.995 16.0137 14.7802 14.7957 16.1012C13.5778 17.4222 12.9322 19.1715 13 20.967C13 25.514 17.786 30.48 21.8 33.847C22.6962 34.6001 23.8293 35.013 25 35.013C26.1706 35.013 27.3037 34.6001 28.2 33.847C32.214 30.48 37 25.514 37 20.967C37.0677 19.1715 36.4221 17.4222 35.2042 16.1012C33.9863 14.7802 32.295 13.995 30.5 13.917M19.5 13.917L19.4976 14.067C19.4991 14.067 19.5006 14.067 19.502 14.067M19.5 13.917L19.5065 14.0669C19.505 14.0669 19.5035 14.067 19.502 14.067M19.5 13.917C20.626 13.9345 21.7275 14.2488 22.6932 14.8283C23.6089 15.3777 24.3717 16.147 24.9132 17.0652C24.8982 17.0915 24.8834 17.1179 24.8687 17.1444L25 17.217L25.1312 17.1444C25.1165 17.1179 25.1017 17.0915 25.0867 17.0652C25.6282 16.147 26.391 15.3777 27.3067 14.8283C28.2724 14.2488 29.3739 13.9345 30.5 13.917M19.502 14.067C17.7482 14.1444 16.0961 14.9121 14.906 16.2029C13.715 17.4947 13.0836 19.2055 13.1499 20.9613L13.1501 20.967H13.15C13.15 23.1911 14.3226 25.5368 16.0141 27.7586C17.7029 29.977 19.8936 32.0521 21.8964 33.7321L21.8965 33.7322C22.7657 34.4626 23.8646 34.863 25 34.863C26.1353 34.863 27.2343 34.4626 28.1035 33.7322L28.1036 33.7321C30.1064 32.0521 32.2971 29.977 33.9859 27.7586C35.6774 25.5368 36.85 23.1911 36.85 20.967V20.9613L36.8501 20.9613C36.9163 19.2055 36.285 17.4947 35.0939 16.2029C33.9038 14.9121 32.2517 14.1444 30.4979 14.067M19.502 14.067C20.6002 14.0849 21.6742 14.3918 22.616 14.9569C23.5591 15.5227 24.3361 16.3274 24.8687 17.2896L25 17.5267L25.1312 17.2896C25.6638 16.3274 26.4408 15.5227 27.3839 14.9569C28.3257 14.3918 29.3997 14.0849 30.4979 14.067M30.4979 14.067C30.4993 14.067 30.5008 14.067 30.5023 14.067L30.5 13.917M30.4979 14.067C30.4964 14.067 30.4949 14.0669 30.4934 14.0669L30.5 13.917M27.065 32.3868L27.0116 32.4317C26.4485 32.9059 25.7361 33.1659 25 33.1659C24.2639 33.1659 23.5516 32.9059 22.9885 32.4319C22.9885 32.4318 22.9884 32.4318 22.9883 32.4317L23.085 32.317C17.947 28.006 15 23.87 15 20.967L27.065 32.3868ZM27.065 32.3868V32.3829C29.615 30.2395 31.6275 28.1356 33.0064 26.2005C34.3909 24.2575 35.1486 22.468 35.15 20.9711C35.2193 19.6676 34.771 18.3895 33.9026 17.4149C33.0332 16.4393 31.8134 15.847 30.5091 15.7673L30.5 15.7667L30.4908 15.7673C29.1865 15.847 27.9667 16.4393 27.0973 17.4149C26.2289 18.3894 25.7807 19.6675 25.8499 20.9708C25.8489 21.1949 25.7595 21.4095 25.601 21.568C25.4416 21.7274 25.2254 21.817 25 21.817C24.7745 21.817 24.5583 21.7274 24.3989 21.568C24.2404 21.4095 24.151 21.1949 24.15 20.9708C24.2193 19.6675 23.771 18.3894 22.9026 17.4149C22.0332 16.4393 20.8134 15.847 19.5091 15.7673L19.5 15.7667L19.4908 15.7673C18.1865 15.847 16.9667 16.4393 16.0973 17.4149C15.2289 18.3895 14.7806 19.6676 14.85 20.971L27.065 32.3868Z" fill="#292D32" stroke="#F9F9F9" stroke-width="0.3"/>
</g>
</g>
<defs>
<clipPath id="clip0_1_1213">
<rect width="24" height="24" fill="white" transform="translate(13 12)"/>
</clipPath>
<clipPath id="clip1_1_1213">
<rect width="24" height="24" fill="white" transform="translate(13 12)"/>
</clipPath>
</defs>
</svg>
