<svg width="70" height="70" viewBox="0 0 70 70" fill="none" xmlns="http://www.w3.org/2000/svg">
<rect width="70" height="70" fill="#343A41"/>
<path d="M29.5701 35.0001L33.1851 38.6302L40.4301 31.3701" stroke="white" stroke-width="3" stroke-linecap="round" stroke-linejoin="round"/>
<path d="M33.1251 20.675C34.1601 19.79 35.8551 19.79 36.9051 20.675L39.2751 22.715C39.7251 23.105 40.5651 23.42 41.1651 23.42H43.7151C45.3051 23.42 46.6101 24.725 46.6101 26.315V28.865C46.6101 29.45 46.9251 30.305 47.3151 30.755L49.3551 33.125C50.24 34.16 50.24 35.855 49.3551 36.905L47.3151 39.275C46.9251 39.725 46.6101 40.565 46.6101 41.165V43.715C46.6101 45.305 45.3051 46.61 43.7151 46.61H41.1651C40.5801 46.61 39.7251 46.925 39.2751 47.315L36.9051 49.355C35.8701 50.24 34.1751 50.24 33.1251 49.355L30.7551 47.315C30.3051 46.925 29.4651 46.61 28.8651 46.61H26.2701C24.6801 46.61 23.3751 45.305 23.3751 43.715V41.15C23.3751 40.565 23.0601 39.725 22.6851 39.275L20.6601 36.89C19.7901 35.855 19.7901 34.175 20.6601 33.14L22.6851 30.755C23.0601 30.305 23.3751 29.465 23.3751 28.88V26.3C23.3751 24.71 24.6801 23.405 26.2701 23.405H28.8651C29.4501 23.405 30.3051 23.09 30.7551 22.7L33.1251 20.675Z" stroke="white" stroke-width="3" stroke-linecap="round" stroke-linejoin="round"/>
</svg>
