<svg width="31" height="31" viewBox="0 0 31 31" fill="none" xmlns="http://www.w3.org/2000/svg">
<path d="M7.66078 26.473L7.06352 26.0822L6.38356 26.2992C6.05716 26.4033 5.61745 26.5399 5.11663 26.6955C4.57085 26.8651 3.9525 27.0572 3.32915 27.2544C3.36319 27.1459 3.39724 27.0371 3.43116 26.9285C3.77667 25.8215 4.14621 24.61 4.24182 24.0492L4.34613 23.4374L3.98766 22.9307C2.42057 20.7159 1.5 18.0131 1.5 15.0909C1.5 7.58483 7.58483 1.5 15.0909 1.5C22.5969 1.5 28.6817 7.58483 28.6817 15.0909C28.6817 22.5969 22.5969 28.6817 15.0909 28.6817C12.346 28.6817 9.79545 27.8696 7.66078 26.473Z" stroke="#292D32" stroke-width="3"/>
<path d="M22.6357 19.8671C22.6357 20.1387 22.5752 20.4179 22.4467 20.6895C22.3183 20.9612 22.152 21.2177 21.9329 21.4592C21.5626 21.8666 21.1545 22.1609 20.6936 22.3495C20.2402 22.5382 19.749 22.6363 19.22 22.6363C18.4492 22.6363 17.6255 22.4552 16.7565 22.0854C15.8875 21.7157 15.0184 21.2177 14.157 20.5915C13.2879 19.9576 12.4643 19.2559 11.6783 18.4787C10.9 17.694 10.1972 16.8716 9.57001 16.0114C8.95036 15.1512 8.45161 14.291 8.08889 13.4384C7.72616 12.5782 7.5448 11.7558 7.5448 10.971C7.5448 10.4579 7.63548 9.96749 7.81684 9.51477C7.99821 9.0545 8.28536 8.63195 8.68587 8.25468C9.1695 7.77932 9.69848 7.54541 10.2577 7.54541C10.4693 7.54541 10.6809 7.59068 10.8698 7.68123C11.0663 7.77177 11.2401 7.90759 11.3761 8.10377L13.1292 10.5711C13.2653 10.7598 13.3635 10.9333 13.4315 11.0993C13.4995 11.2578 13.5373 11.4162 13.5373 11.5596C13.5373 11.7407 13.4844 11.9218 13.3786 12.0953C13.2804 12.2688 13.1368 12.4499 12.9554 12.631L12.3811 13.2271C12.298 13.3101 12.2602 13.4082 12.2602 13.5289C12.2602 13.5893 12.2678 13.6421 12.2829 13.7025C12.3056 13.7628 12.3282 13.8081 12.3433 13.8534C12.4794 14.1024 12.7136 14.4268 13.0461 14.8192C13.3862 15.2116 13.7489 15.6115 14.1419 16.0114C14.5499 16.4113 14.9429 16.781 15.3434 17.1206C15.7363 17.4526 16.0613 17.6789 16.3182 17.8147C16.356 17.8298 16.4013 17.8525 16.4542 17.8751C16.5147 17.8977 16.5751 17.9053 16.6431 17.9053C16.7716 17.9053 16.8698 17.86 16.953 17.777L17.5273 17.2111C17.7162 17.0225 17.8976 16.8791 18.0714 16.7886C18.2452 16.6829 18.419 16.6301 18.6079 16.6301C18.7515 16.6301 18.9026 16.6603 19.0689 16.7282C19.2351 16.7961 19.4089 16.8942 19.5978 17.0225L22.0991 18.7956C22.2956 18.9315 22.4316 19.0899 22.5147 19.2785C22.5903 19.4672 22.6357 19.6558 22.6357 19.8671Z" fill="#292D32"/>
</svg>
